<?xml version="1.0" encoding="UTF-8" standalone="no"?>
<svg
   xmlns:dc="http://purl.org/dc/elements/1.1/"
   xmlns:cc="http://creativecommons.org/ns#"
   xmlns:rdf="http://www.w3.org/1999/02/22-rdf-syntax-ns#"
   xmlns:svg="http://www.w3.org/2000/svg"
   xmlns="http://www.w3.org/2000/svg"
   xmlns:sodipodi="http://sodipodi.sourceforge.net/DTD/sodipodi-0.dtd"
   xmlns:inkscape="http://www.inkscape.org/namespaces/inkscape"
   sodipodi:docname="japp&amp;go-logo.svg"
   inkscape:version="1.0 (4035a4fb49, 2020-05-01)"
   id="svg1108"
   version="1.1"
   viewBox="0 0 90.342743 13.45817"
   height="13.45817mm"
   width="90.342743mm">
  <defs
     id="defs1102" />
  <sodipodi:namedview
     inkscape:window-maximized="0"
     inkscape:window-y="192"
     inkscape:window-x="3591"
     inkscape:window-height="1152"
     inkscape:window-width="1261"
     fit-margin-bottom="0"
     fit-margin-right="0"
     fit-margin-left="0"
     fit-margin-top="0"
     showgrid="false"
     inkscape:document-rotation="0"
     inkscape:current-layer="layer1"
     inkscape:document-units="mm"
     inkscape:cy="171.40853"
     inkscape:cx="199.03287"
     inkscape:zoom="1.4"
     inkscape:pageshadow="2"
     inkscape:pageopacity="0.0"
     borderopacity="1.0"
     bordercolor="#666666"
     pagecolor="#ffffff"
     id="base" />
  <metadata
     id="metadata1105">
    <rdf:RDF>
      <cc:Work
         rdf:about="">
        <dc:format>image/svg+xml</dc:format>
        <dc:type
           rdf:resource="http://purl.org/dc/dcmitype/StillImage" />
        <dc:title></dc:title>
      </cc:Work>
    </rdf:RDF>
  </metadata>
  <g
     transform="translate(-30.175171,-16.966606)"
     id="layer1"
     inkscape:groupmode="layer"
     inkscape:label="Layer 1">
    <path
       style="font-style:normal;font-variant:normal;font-weight:bold;font-stretch:normal;font-size:31.9031px;line-height:1.25;font-family:'Century Gothic';-inkscape-font-specification:'Century Gothic, Bold';font-variant-ligatures:normal;font-variant-caps:normal;font-variant-numeric:normal;font-variant-east-asian:normal;letter-spacing:2.52035px;fill:#000000;fill-opacity:1;stroke:none;stroke-width:0.351203"
       d="m 31.663665,20.039622 h 1.872616 v 7.709982 q 0,1.063209 -0.212638,1.584527 -0.205782,0.528173 -0.658505,0.809407 -0.452722,0.281238 -1.090646,0.281238 -0.562471,0 -1.399321,-0.281238 v -1.474772 q 0.439002,0.212642 0.775114,0.212642 0.35669,0 0.535035,-0.212642 0.178345,-0.212643 0.178345,-0.781971 z"
       id="path1084-5" />
    <path
       style="font-style:normal;font-variant:normal;font-weight:bold;font-stretch:normal;font-size:31.9031px;line-height:1.25;font-family:'Century Gothic';-inkscape-font-specification:'Century Gothic, Bold';font-variant-ligatures:normal;font-variant-caps:normal;font-variant-numeric:normal;font-variant-east-asian:normal;letter-spacing:2.52035px;fill:#be0026;fill-opacity:1;stroke:none;stroke-width:0.351203"
       d="m 32.596543,16.966606 q 0.500736,0 0.850566,0.35669 0.356689,0.356689 0.356689,0.864287 0,0.500736 -0.349829,0.857426 -0.349829,0.35669 -0.836849,0.35669 -0.500737,0 -0.857427,-0.36355 -0.349829,-0.363551 -0.349829,-0.878004 0,-0.493876 0.342973,-0.84371 0.349829,-0.349829 0.843706,-0.349829 z"
       id="path1060-7" />
    <path
       id="path1062-9"
       style="font-style:normal;font-variant:normal;font-weight:bold;font-stretch:normal;font-size:31.9031px;line-height:1.25;font-family:'Century Gothic';-inkscape-font-specification:'Century Gothic, Bold';font-variant-ligatures:normal;font-variant-caps:normal;font-variant-numeric:normal;font-variant-east-asian:normal;letter-spacing:0.59021px;fill:#be0026;fill-opacity:1;stroke:none;stroke-width:0.351203"
       d="m 41.142608,20.039622 h 1.865761 v 7.463046 h -1.865761 v -0.788836 q -0.548756,0.521319 -1.104367,0.754538 -0.548755,0.226359 -1.193539,0.226359 -1.447336,0 -2.503684,-1.118083 -1.056352,-1.124944 -1.056352,-2.791782 0,-1.728574 1.022054,-2.832937 1.022051,-1.104366 2.483107,-1.104366 0.672221,0 1.26213,0.253796 0.58991,0.253801 1.090651,0.761398 z m -1.968654,1.536512 q -0.871147,0 -1.447335,0.617347 -0.576193,0.610486 -0.576193,1.570806 0,0.967175 0.583053,1.591382 0.589909,0.624207 1.447336,0.624207 0.884863,0 1.467912,-0.610486 0.583053,-0.617351 0.583053,-1.611964 0,-0.974036 -0.583053,-1.577666 -0.583049,-0.603626 -1.474773,-0.603626 z" />
    <path
       id="path1064-9"
       style="font-style:normal;font-variant:normal;font-weight:bold;font-stretch:normal;font-size:31.9031px;line-height:1.25;font-family:'Century Gothic';-inkscape-font-specification:'Century Gothic, Bold';font-variant-ligatures:normal;font-variant-caps:normal;font-variant-numeric:normal;font-variant-east-asian:normal;letter-spacing:0.59021px;fill:#be0026;fill-opacity:1;stroke:none;stroke-width:0.351203"
       d="m 47.020356,20.039622 v 0.823133 q 0.507598,-0.507597 1.097507,-0.761398 0.58991,-0.253796 1.26213,-0.253796 1.461055,0 2.483106,1.104366 1.022055,1.104363 1.022055,2.832937 0,1.666838 -1.056349,2.791782 -1.056352,1.118083 -2.503686,1.118083 -0.644784,0 -1.200396,-0.226359 -0.555615,-0.233219 -1.104367,-0.754538 v 3.518879 H 45.161457 V 20.039622 Z m 1.968649,1.536512 q -0.884863,0 -1.467911,0.603626 -0.58305,0.60363 -0.58305,1.577666 0,0.994613 0.58305,1.611964 0.583048,0.610486 1.467911,0.610486 0.857427,0 1.44048,-0.624207 0.589909,-0.624207 0.589909,-1.591382 0,-0.96032 -0.576193,-1.570806 -0.576188,-0.617347 -1.454196,-0.617347 z" />
    <path
       id="path1066-7"
       style="font-style:normal;font-variant:normal;font-weight:bold;font-stretch:normal;font-size:31.9031px;line-height:1.25;font-family:'Century Gothic';-inkscape-font-specification:'Century Gothic, Bold';font-variant-ligatures:normal;font-variant-caps:normal;font-variant-numeric:normal;font-variant-east-asian:normal;letter-spacing:0.59021px;fill:#be0026;fill-opacity:1;stroke:none;stroke-width:0.351203"
       d="m 56.554173,20.039622 v 0.823133 q 0.507598,-0.507597 1.097507,-0.761398 0.58991,-0.253796 1.262131,-0.253796 1.461057,0 2.483112,1.104366 1.02205,1.104363 1.02205,2.832937 0,1.666838 -1.056348,2.791782 -1.056353,1.118083 -2.503688,1.118083 -0.644784,0 -1.200397,-0.226359 -0.555616,-0.233219 -1.104367,-0.754538 v 3.518879 h -1.8589 V 20.039622 Z m 1.968655,1.536512 q -0.884869,0 -1.467919,0.603626 -0.583048,0.60363 -0.583048,1.577666 0,0.994613 0.583048,1.611964 0.58305,0.610486 1.467919,0.610486 0.857427,0 1.440476,-0.624207 0.589909,-0.624207 0.589909,-1.591382 0,-0.96032 -0.576193,-1.570806 -0.576188,-0.617347 -1.454192,-0.617347 z" />
    <path
       id="path1068-2"
       style="font-style:normal;font-variant:normal;font-weight:bold;font-stretch:normal;font-size:31.9031px;line-height:1.25;font-family:'Century Gothic';-inkscape-font-specification:'Century Gothic, Bold';font-variant-ligatures:normal;font-variant-caps:normal;font-variant-numeric:normal;font-variant-east-asian:normal;letter-spacing:2.52035px;fill:#000000;fill-opacity:1;stroke:none;stroke-width:0.351203"
       d="m 70.759252,23.537923 1.145525,1.310149 -0.521318,0.4733 -0.514454,0.466439 1.61882,1.714857 h -2.325339 l -0.665365,-0.685942 q -1.591382,0.939738 -2.956406,0.939738 -1.159241,0 -1.879481,-0.679081 -0.71338,-0.679082 -0.71338,-1.742291 0,-0.802551 0.404709,-1.515931 0.404704,-0.713379 1.3856,-1.474773 -0.967176,-1.310149 -0.967176,-2.318482 0,-0.747678 0.644784,-1.474773 0.644784,-0.727101 1.817742,-0.727101 1.186679,0 1.817746,0.72024 0.637928,0.72024 0.637928,1.454196 0,0.576188 -0.294955,1.104367 -0.288098,0.528174 -1.337586,1.563945 1.227833,1.447336 1.584522,1.804026 0.219503,-0.164629 1.118084,-0.932883 z m -3.649205,-2.22245 q 0.761394,-0.651644 0.761394,-1.152381 0,-0.260657 -0.171485,-0.425281 -0.171484,-0.164628 -0.452722,-0.164628 -0.260657,0 -0.445862,0.185205 -0.178345,0.185206 -0.178345,0.432142 0,0.49388 0.48702,1.124943 z m 1.13866,4.170527 q -0.528174,-0.521318 -1.488493,-1.728574 -1.022051,0.843706 -1.022051,1.474773 0,0.294955 0.274378,0.541895 0.281234,0.24694 0.706519,0.24694 0.610486,0 1.529647,-0.535034 z" />
    <path
       id="path1070-3"
       style="font-style:normal;font-variant:normal;font-weight:bold;font-stretch:normal;font-size:31.9031px;line-height:1.25;font-family:'Century Gothic';-inkscape-font-specification:'Century Gothic, Bold';font-variant-ligatures:normal;font-variant-caps:normal;font-variant-numeric:normal;font-variant-east-asian:normal;letter-spacing:2.52035px;fill:#000000;fill-opacity:1;stroke:none;stroke-width:0.351203"
       d="m 79.552253,20.039622 h 1.86576 v 6.392977 q 0,1.893197 -0.761394,2.784922 -1.022054,1.207255 -3.079876,1.207255 -1.097506,0 -1.845184,-0.274377 -0.747677,-0.274378 -1.26213,-0.809408 -0.514457,-0.528178 -0.761393,-1.289572 h 2.064682 q 0.274377,0.315531 0.706519,0.473299 0.432141,0.164628 1.02205,0.164628 0.754537,0 1.21412,-0.233223 0.459579,-0.23322 0.644784,-0.603626 0.192062,-0.370411 0.192062,-1.275851 -0.493877,0.493876 -1.035772,0.713379 -0.54189,0.212643 -1.227832,0.212643 -1.502215,0 -2.537986,-1.08379 -1.035771,-1.083786 -1.035771,-2.743764 0,-1.776588 1.097506,-2.853517 0.994617,-0.974036 2.373357,-0.974036 0.644784,0 1.214117,0.24008 0.576192,0.233219 1.152381,0.775114 z m -1.941212,1.557089 q -0.884864,0 -1.461057,0.59677 -0.576188,0.589909 -0.576188,1.488489 0,0.932883 0.589909,1.529652 0.589909,0.59677 1.481633,0.59677 0.871143,0 1.433615,-0.583053 0.569332,-0.583049 0.569332,-1.529648 0,-0.932878 -0.569332,-1.515931 -0.569332,-0.583049 -1.467912,-0.583049 z" />
    <path
       id="path1072-1"
       style="font-style:normal;font-variant:normal;font-weight:bold;font-stretch:normal;font-size:31.9031px;line-height:1.25;font-family:'Century Gothic';-inkscape-font-specification:'Century Gothic, Bold';font-variant-ligatures:normal;font-variant-caps:normal;font-variant-numeric:normal;font-variant-east-asian:normal;letter-spacing:2.52035px;fill:#000000;fill-opacity:1;stroke:none;stroke-width:0.351203"
       d="m 87.076263,19.847561 q 1.056348,0 1.98237,0.528174 0.932878,0.528174 1.454196,1.433619 0.521314,0.905441 0.521314,1.954933 0,1.056348 -0.528175,1.975509 -0.521313,0.919162 -1.426758,1.440475 -0.905441,0.514458 -1.996087,0.514458 -1.605103,0 -2.743768,-1.138664 -1.131804,-1.145521 -1.131804,-2.778062 0,-1.74915 1.282712,-2.915248 1.124943,-1.015194 2.586,-1.015194 z m 0.02743,1.762867 q -0.871148,0 -1.454196,0.61049 -0.576193,0.603626 -0.576193,1.550225 0,0.97404 0.569332,1.577666 0.576193,0.60363 1.454196,0.60363 0.878008,0 1.461057,-0.610491 0.583048,-0.610486 0.583048,-1.570805 0,-0.960316 -0.576188,-1.557085 -0.569332,-0.60363 -1.461056,-0.60363 z" />
    <text
       xml:space="preserve"
       style="font-style:normal;font-variant:normal;font-weight:bold;font-stretch:normal;font-size:5.99645px;line-height:1.25;font-family:'Century Gothic';-inkscape-font-specification:'Century Gothic, Bold';font-variant-ligatures:normal;font-variant-caps:normal;font-variant-numeric:normal;font-variant-east-asian:normal;letter-spacing:0.744965px;fill:#000026;fill-opacity:1;stroke:none;stroke-width:0.149911"
       x="98.076225"
       y="24.147175"
       id="text1703"><tspan
         sodipodi:role="line"
         x="98.076225"
         y="24.147175"
         style="font-style:normal;font-variant:normal;font-weight:bold;font-stretch:normal;font-size:5.99645px;font-family:'Century Gothic';-inkscape-font-specification:'Century Gothic, Bold';font-variant-ligatures:normal;font-variant-caps:normal;font-variant-numeric:normal;font-variant-east-asian:normal;letter-spacing:0.744965px;fill:#000026;fill-opacity:1;stroke-width:0.149911"
         id="tspan1701"><tspan
           id="tspan1697"
           style="letter-spacing:0.744965px;fill:#000026;fill-opacity:1;stroke-width:0.149911"
           dy="-0.011277473">tr<tspan
   style="letter-spacing:0.547575px;stroke-width:0.149911"
   id="tspan1691">a</tspan><tspan
   id="tspan1695"
   style="letter-spacing:0.351847px;fill:#000026;fill-opacity:1;stroke-width:0.149911"><tspan
   style="letter-spacing:0.547575px;stroke-width:0.149911"
   id="tspan1693">v</tspan>e</tspan>l</tspan><tspan
           dx="0"
           style="font-style:normal;font-variant:normal;font-weight:bold;font-stretch:normal;font-size:5.99645px;font-family:'Century Gothic';-inkscape-font-specification:'Century Gothic, Bold';font-variant-ligatures:normal;font-variant-caps:normal;font-variant-numeric:normal;font-variant-east-asian:normal;letter-spacing:0.744965px;fill:#000026;fill-opacity:1;stroke-width:0.149911"
           id="tspan1699"
           dy="-0.49808845"> </tspan></tspan></text>
    <text
       id="text1711"
       y="19.103085"
       x="94.890877"
       style="font-style:normal;font-variant:normal;font-weight:bold;font-stretch:normal;font-size:5.99645px;line-height:1.25;font-family:'Century Gothic';-inkscape-font-specification:'Century Gothic, Bold';font-variant-ligatures:normal;font-variant-caps:normal;font-variant-numeric:normal;font-variant-east-asian:normal;letter-spacing:0.473718px;fill:#be0026;fill-opacity:1;stroke:none;stroke-width:0.149911"
       xml:space="preserve"><tspan
         style="font-style:normal;font-variant:normal;font-weight:bold;font-stretch:normal;font-size:5.99645px;font-family:'Century Gothic';-inkscape-font-specification:'Century Gothic, Bold';font-variant-ligatures:normal;font-variant-caps:normal;font-variant-numeric:normal;font-variant-east-asian:normal;letter-spacing:0.473718px;fill:#be0026;fill-opacity:1;stroke-width:0.149911"
         y="19.103085"
         x="94.890877"
         id="tspan1705"
         sodipodi:role="line" /><tspan
         id="tspan1709"
         style="font-style:normal;font-variant:normal;font-weight:bold;font-stretch:normal;font-size:5.99645px;font-family:'Century Gothic';-inkscape-font-specification:'Century Gothic, Bold';font-variant-ligatures:normal;font-variant-caps:normal;font-variant-numeric:normal;font-variant-east-asian:normal;letter-spacing:0.473718px;fill:#be0026;fill-opacity:1;stroke-width:0.149911"
         y="26.598646"
         x="94.890877"
         sodipodi:role="line"><tspan
           dy="0.50936592 0 0 0 0 0 0 -0.49808845"
           id="tspan1707"
           style="font-style:normal;font-variant:normal;font-weight:bold;font-stretch:normal;font-size:5.99645px;font-family:'Century Gothic';-inkscape-font-specification:'Century Gothic, Bold';font-variant-ligatures:normal;font-variant-caps:normal;font-variant-numeric:normal;font-variant-east-asian:normal;letter-spacing:0.473718px;fill:#be0026;fill-opacity:1;stroke-width:0.149911"
           dx="0 0 0 0 0 0 0 0">planner </tspan></tspan></text>
  </g>
</svg>
