<?xml version="1.0" encoding="UTF-8" standalone="no"?>
<svg
   xmlns:dc="http://purl.org/dc/elements/1.1/"
   xmlns:cc="http://creativecommons.org/ns#"
   xmlns:rdf="http://www.w3.org/1999/02/22-rdf-syntax-ns#"
   xmlns:svg="http://www.w3.org/2000/svg"
   xmlns="http://www.w3.org/2000/svg"
   id="svg1172"
   version="1.1"
   viewBox="0 0 126.80465 30.563411"
   height="115.51525"
   width="479.26169">
  <defs
     id="defs1166" />
  <metadata
     id="metadata1169">
    <rdf:RDF>
      <cc:Work
         rdf:about="">
        <dc:format>image/svg+xml</dc:format>
        <dc:type
           rdf:resource="http://purl.org/dc/dcmitype/StillImage" />
        <dc:title></dc:title>
      </cc:Work>
    </rdf:RDF>
  </metadata>
  <g
     transform="translate(164.55245,178.03436)"
     id="layer1">
    <path
       id="path1855"
       d="m -161.17209,-171.05556 h 4.25271 v 17.50932 q 0,2.41454 -0.48291,3.59844 -0.46733,1.19948 -1.49546,1.83817 -1.02812,0.63868 -2.47685,0.63868 -1.27737,0 -3.17785,-0.63868 v -3.3492 q 0.99697,0.4829 1.76028,0.4829 0.81004,0 1.21506,-0.4829 0.40502,-0.48291 0.40502,-1.77586 z"
       style="font-style:normal;font-variant:normal;font-weight:bold;font-stretch:normal;font-size:31.9031px;line-height:1.25;font-family:'Century Gothic';-inkscape-font-specification:'Century Gothic, Bold';font-variant-ligatures:normal;font-variant-caps:normal;font-variant-numeric:normal;font-variant-east-asian:normal;letter-spacing:0.59021px;fill:#000026;fill-opacity:1;stroke:none;stroke-width:0.797579" />
    <path
       id="path1857"
       d="m -159.05352,-178.03436 q 1.13717,0 1.93163,0.81004 0.81004,0.81003 0.81004,1.96278 0,1.13717 -0.79446,1.94721 -0.79447,0.81004 -1.90048,0.81004 -1.13717,0 -1.94721,-0.82561 -0.79446,-0.82562 -0.79446,-1.99395 0,-1.12159 0.77888,-1.91605 0.79446,-0.79446 1.91606,-0.79446 z"
       style="font-style:normal;font-variant:normal;font-weight:bold;font-stretch:normal;font-size:31.9031px;line-height:1.25;font-family:'Century Gothic';-inkscape-font-specification:'Century Gothic, Bold';font-variant-ligatures:normal;font-variant-caps:normal;font-variant-numeric:normal;font-variant-east-asian:normal;letter-spacing:0.59021px;fill:#be0026;fill-opacity:1;stroke:none;stroke-width:0.797579" />
    <path
       d="m -138.43191,-156.46787 q 0,1.0209 -0.66996,1.69086 -0.63806,0.63807 -1.65896,0.63807 -1.0209,0 -1.69087,-0.63807 -0.63806,-0.66996 -0.63806,-1.69086 v -5.45543 h -3.66886 q 0,0.51045 0,1.53135 0.0319,1.0528 0.0319,1.53135 l 0.0319,0.0638 0.0319,0.0319 q 0.9571,0.0319 1.62706,0.73377 0.70187,0.66996 0.70187,1.62706 0,0.92519 -0.70187,1.62706 -0.70187,0.66996 -1.65896,0.66996 -1.11661,0 -2.23322,-0.66996 -1.53134,-0.89329 -2.1056,-2.23322 -0.41474,-1.0209 -0.41474,-2.77557 0,-0.35093 0,-1.11661 0.0319,-0.79758 0.0319,-1.18041 -1.53135,-0.51045 -1.53135,-2.10561 0,-1.62706 1.49945,-2.23322 0,-1.0528 0.63806,-1.72276 0.63806,-0.70187 1.69086,-0.70187 0.989,0 1.62706,0.63806 0.66997,0.63806 0.70187,1.62706 h 3.70076 v -2.80747 h -5.96588 q -1.0209,0 -1.69087,-0.63807 -0.63806,-0.66996 -0.63806,-1.69086 0,-1.65896 1.37184,-2.10561 0.63806,-0.22332 2.77557,-0.22332 0,-1.0528 0.63806,-1.75467 0.63806,-0.70187 1.69086,-0.70187 1.0528,0 1.69087,0.70187 0.66996,0.70187 0.66996,1.75467 0.19142,0 0.63806,-0.0319 0.41474,0 0.63806,0 1.21232,0 2.0099,0.60616 0.82948,0.60616 0.82948,1.75467 z"
       style="font-style:normal;font-variant:normal;font-weight:normal;font-stretch:normal;font-size:31.9031px;line-height:1.25;font-family:'SamuraiCabCo BB';-inkscape-font-specification:'SamuraiCabCo BB, Normal';font-variant-ligatures:normal;font-variant-caps:normal;font-variant-numeric:normal;font-variant-east-asian:normal;letter-spacing:2.52035px;fill:#be0026;fill-opacity:1;stroke:none;stroke-width:0.797579"
       id="path1859" />
    <path
       d="m -119.64347,-167.37873 q 0,1.21232 -0.44664,2.0737 -0.19142,0.38284 -1.21232,1.75467 -0.70187,0.9571 -1.40374,1.94609 -0.92519,1.08471 -2.00989,1.08471 -0.95709,0 -1.65896,-0.66997 -0.66997,-0.70187 -0.66997,-1.65896 0,-0.76567 0.44665,-1.37183 l 2.26512,-3.0946 v -2.0737 h -5.99779 q -0.98899,0 -1.69086,-0.66997 -0.66997,-0.70187 -0.66997,-1.65896 0,-1.59516 1.37184,-2.0737 0.70187,-0.25523 2.61605,-0.25523 0,-1.0528 0.63806,-1.75467 0.63807,-0.70187 1.69087,-0.70187 1.0528,0 1.69086,0.70187 0.66997,0.70187 0.66997,1.75467 h 0.89328 q 1.69087,0 2.36083,0.38284 0.989,0.54235 1.05281,2.13751 0.0638,2.48844 0.0638,4.1474 z m -5.93397,10.87896 q 0,1.0209 -0.66997,1.72276 -0.66996,0.70187 -1.69086,0.70187 -1.30803,0 -2.64796,-0.98899 -1.30803,-0.989 -1.75467,-2.23322 -0.28713,-0.76567 -0.28713,-2.20131 0,-1.08471 0.0319,-3.28602 0.0638,-2.20132 0.0638,-3.28602 0,-0.9571 0.66997,-1.62706 0.70186,-0.70187 1.65896,-0.70187 2.36083,0 2.36083,3.38173 0,0.38284 -0.0319,1.21232 -0.0319,0.79758 -0.0319,1.18041 l 0.0319,3.82837 0.0319,0.0319 q 0.98899,0.0319 1.62705,0.66997 0.63807,0.60616 0.63807,1.59515 z"
       style="font-style:normal;font-variant:normal;font-weight:normal;font-stretch:normal;font-size:31.9031px;line-height:1.25;font-family:'SamuraiCabCo BB';-inkscape-font-specification:'SamuraiCabCo BB, Normal';font-variant-ligatures:normal;font-variant-caps:normal;font-variant-numeric:normal;font-variant-east-asian:normal;letter-spacing:2.52035px;fill:#be0026;fill-opacity:1;stroke:none;stroke-width:0.797579"
       id="path1861" />
    <path
       d="m -101.79468,-167.37873 q 0,1.21232 -0.44664,2.0737 -0.19142,0.38284 -1.21232,1.75467 -0.70186,0.9571 -1.40373,1.94609 -0.92519,1.08471 -2.0099,1.08471 -0.95709,0 -1.65896,-0.66997 -0.66996,-0.70187 -0.66996,-1.65896 0,-0.76567 0.44664,-1.37183 l 2.26512,-3.0946 v -2.0737 h -5.99778 q -0.989,0 -1.69087,-0.66997 -0.66996,-0.70187 -0.66996,-1.65896 0,-1.59516 1.37183,-2.0737 0.70187,-0.25523 2.61605,-0.25523 0,-1.0528 0.63807,-1.75467 0.63806,-0.70187 1.69086,-0.70187 1.0528,0 1.69087,0.70187 0.66996,0.70187 0.66996,1.75467 h 0.89329 q 1.69086,0 2.36083,0.38284 0.98899,0.54235 1.0528,2.13751 0.0638,2.48844 0.0638,4.1474 z m -5.93397,10.87896 q 0,1.0209 -0.66997,1.72276 -0.66996,0.70187 -1.69086,0.70187 -1.30803,0 -2.64796,-0.98899 -1.30803,-0.989 -1.75467,-2.23322 -0.28713,-0.76567 -0.28713,-2.20131 0,-1.08471 0.0319,-3.28602 0.0638,-2.20132 0.0638,-3.28602 0,-0.9571 0.66997,-1.62706 0.70187,-0.70187 1.65896,-0.70187 2.36083,0 2.36083,3.38173 0,0.38284 -0.0319,1.21232 -0.0319,0.79758 -0.0319,1.18041 l 0.0319,3.82837 0.0319,0.0319 q 0.989,0.0319 1.62706,0.66997 0.63806,0.60616 0.63806,1.59515 z"
       style="font-style:normal;font-variant:normal;font-weight:normal;font-stretch:normal;font-size:31.9031px;line-height:1.25;font-family:'SamuraiCabCo BB';-inkscape-font-specification:'SamuraiCabCo BB, Normal';font-variant-ligatures:normal;font-variant-caps:normal;font-variant-numeric:normal;font-variant-east-asian:normal;letter-spacing:2.52035px;fill:#be0026;fill-opacity:1;stroke:none;stroke-width:0.797579"
       id="path1863" />
    <text
       xml:space="preserve"
       style="font-style:normal;font-variant:normal;font-weight:bold;font-stretch:normal;font-size:13.6179px;line-height:1.25;font-family:'Century Gothic';-inkscape-font-specification:'Century Gothic, Bold';font-variant-ligatures:normal;font-variant-caps:normal;font-variant-numeric:normal;font-variant-east-asian:normal;letter-spacing:1.69181px;fill:#000026;fill-opacity:1;stroke:none;stroke-width:0.340447"
       x="-88.712753"
       y="-162.65385"
       id="text2099"><tspan
         x="-88.712753"
         y="-162.65385"
         style="font-style:normal;font-variant:normal;font-weight:bold;font-stretch:normal;font-size:13.6179px;font-family:'Century Gothic';-inkscape-font-specification:'Century Gothic, Bold';font-variant-ligatures:normal;font-variant-caps:normal;font-variant-numeric:normal;font-variant-east-asian:normal;letter-spacing:1.69181px;fill:#000026;fill-opacity:1;stroke-width:0.340447"
         id="tspan2097"><tspan
           id="tspan2093"
           style="letter-spacing:1.69181px;fill:#000026;fill-opacity:1;stroke-width:0.340447"
           dy="-0.025611069">tr<tspan
   style="letter-spacing:1.24354px;stroke-width:0.340447"
   id="tspan2293">a</tspan><tspan
   id="tspan2089"
   style="letter-spacing:0.799042px;fill:#000026;fill-opacity:1;stroke-width:0.340447"><tspan
   style="letter-spacing:1.24354px;stroke-width:0.340447"
   id="tspan2295">v</tspan>e</tspan>l</tspan><tspan
           dx="0"
           style="font-style:normal;font-variant:normal;font-weight:bold;font-stretch:normal;font-size:13.6179px;font-family:'Century Gothic';-inkscape-font-specification:'Century Gothic, Bold';font-variant-ligatures:normal;font-variant-caps:normal;font-variant-numeric:normal;font-variant-east-asian:normal;letter-spacing:1.69181px;fill:#000026;fill-opacity:1;stroke-width:0.340447"
           id="tspan2095"
           dy="-1.1311557"> </tspan></tspan></text>
    <text
       id="text2107"
       y="-174.10896"
       x="-95.946625"
       style="font-style:normal;font-variant:normal;font-weight:bold;font-stretch:normal;font-size:13.6179px;line-height:1.25;font-family:'Century Gothic';-inkscape-font-specification:'Century Gothic, Bold';font-variant-ligatures:normal;font-variant-caps:normal;font-variant-numeric:normal;font-variant-east-asian:normal;letter-spacing:1.07581px;fill:#000026;fill-opacity:1;stroke:none;stroke-width:0.340447"
       xml:space="preserve"><tspan
         style="font-style:normal;font-variant:normal;font-weight:bold;font-stretch:normal;font-size:13.6179px;font-family:'Century Gothic';-inkscape-font-specification:'Century Gothic, Bold';font-variant-ligatures:normal;font-variant-caps:normal;font-variant-numeric:normal;font-variant-east-asian:normal;letter-spacing:1.07581px;fill:#000026;fill-opacity:1;stroke-width:0.340447"
         y="-174.10896"
         x="-95.946625"
         id="tspan2101" /><tspan
         id="tspan2105"
         style="font-style:normal;font-variant:normal;font-weight:bold;font-stretch:normal;font-size:13.6179px;font-family:'Century Gothic';-inkscape-font-specification:'Century Gothic, Bold';font-variant-ligatures:normal;font-variant-caps:normal;font-variant-numeric:normal;font-variant-east-asian:normal;letter-spacing:1.07581px;fill:#000026;fill-opacity:1;stroke-width:0.340447"
         y="-157.08659"
         x="-95.946625"><tspan
           dy="1.1567668 0 0 0 0 0 0 -1.1311557"
           id="tspan2103"
           style="font-style:normal;font-variant:normal;font-weight:bold;font-stretch:normal;font-size:13.6179px;font-family:'Century Gothic';-inkscape-font-specification:'Century Gothic, Bold';font-variant-ligatures:normal;font-variant-caps:normal;font-variant-numeric:normal;font-variant-east-asian:normal;letter-spacing:1.07581px;fill:#000026;fill-opacity:1;stroke-width:0.340447"
           dx="0 0 0 0 0 0 0 0">planner </tspan></tspan></text>
  </g>
</svg>
