<?xml version="1.0" encoding="UTF-8" standalone="no"?>
<svg
   xmlns:dc="http://purl.org/dc/elements/1.1/"
   xmlns:cc="http://creativecommons.org/ns#"
   xmlns:rdf="http://www.w3.org/1999/02/22-rdf-syntax-ns#"
   xmlns:svg="http://www.w3.org/2000/svg"
   xmlns="http://www.w3.org/2000/svg"
   xmlns:sodipodi="http://sodipodi.sourceforge.net/DTD/sodipodi-0.dtd"
   xmlns:inkscape="http://www.inkscape.org/namespaces/inkscape"
   inkscape:version="1.0 (4035a4fb49, 2020-05-01)"
   sodipodi:docname="japp-logo-login.svg"
   version="1.1"
   viewBox="0 0 177.78 100"
   data-name="logoipsum"
   id="logoipsum">
  <metadata
     id="metadata13">
    <rdf:RDF>
      <cc:Work
         rdf:about="">
        <dc:format>image/svg+xml</dc:format>
        <dc:type
           rdf:resource="http://purl.org/dc/dcmitype/StillImage" />
        <dc:title>logoipsum-4</dc:title>
      </cc:Work>
    </rdf:RDF>
  </metadata>
  <defs
     id="defs11" />
  <sodipodi:namedview
     inkscape:current-layer="logoipsum"
     inkscape:window-maximized="1"
     inkscape:window-y="-8"
     inkscape:window-x="2552"
     inkscape:cy="73.920429"
     inkscape:cx="108.40541"
     inkscape:zoom="5.9005513"
     showgrid="false"
     id="namedview9"
     inkscape:window-height="1377"
     inkscape:window-width="3440"
     inkscape:pageshadow="2"
     inkscape:pageopacity="0"
     guidetolerance="10"
     gridtolerance="10"
     objecttolerance="10"
     borderopacity="1"
     bordercolor="#666666"
     pagecolor="#ffffff" />
  <title
     id="title2">logoipsum-4</title>
  <g
     transform="matrix(1.0036848,0,0,1.0036848,-2.7401414,17.051249)"
     id="g890">
    <path
       style="font-style:normal;font-variant:normal;font-weight:bold;font-stretch:normal;font-size:31.9031px;line-height:1.25;font-family:'Century Gothic';-inkscape-font-specification:'Century Gothic, Bold';font-variant-ligatures:normal;font-variant-caps:normal;font-variant-numeric:normal;font-variant-east-asian:normal;letter-spacing:0.59021px;fill:#000026;fill-opacity:1;stroke:none;stroke-width:0.794117"
       d="m 31.513254,24.459201 h 4.234242 v 17.433286 q 0,2.404057 -0.480815,3.582815 -0.465297,1.194271 -1.488965,1.830186 -1.023657,0.635907 -2.466092,0.635907 -1.271827,0 -3.164051,-0.635907 v -3.334655 q 0.992641,0.480802 1.752637,0.480802 0.806519,0 1.209784,-0.480802 0.40326,-0.480813 0.40326,-1.768149 z"
       id="path1855" />
    <path
       style="font-style:normal;font-variant:normal;font-weight:bold;font-stretch:normal;font-size:31.9031px;line-height:1.25;font-family:'Century Gothic';-inkscape-font-specification:'Century Gothic, Bold';font-variant-ligatures:normal;font-variant-caps:normal;font-variant-numeric:normal;font-variant-east-asian:normal;letter-spacing:0.59021px;fill:#be0026;fill-opacity:1;stroke:none;stroke-width:0.794117"
       d="m 33.622621,17.510706 q 1.132234,0 1.923245,0.806523 0.80652,0.806512 0.80652,1.954256 0,1.132232 -0.791007,1.938754 -0.791022,0.806523 -1.892229,0.806523 -1.132229,0 -1.938753,-0.822025 -0.791012,-0.822034 -0.791012,-1.985291 0,-1.11672 0.775498,-1.90773 0.791012,-0.79101 1.907738,-0.79101 z"
       id="path1857" />
    <path
       id="path1859"
       style="font-style:normal;font-variant:normal;font-weight:normal;font-stretch:normal;font-size:31.9031px;line-height:1.25;font-family:'SamuraiCabCo BB';-inkscape-font-specification:'SamuraiCabCo BB, Normal';font-variant-ligatures:normal;font-variant-caps:normal;font-variant-numeric:normal;font-variant-east-asian:normal;letter-spacing:2.52035px;fill:#be0026;fill-opacity:1;stroke:none;stroke-width:0.794117"
       d="m 54.154684,38.983544 q 0,1.016467 -0.667048,1.683518 -0.635292,0.635299 -1.651758,0.635299 -1.016467,0 -1.683526,-0.635299 -0.635291,-0.667051 -0.635291,-1.683518 v -5.43174 h -3.652925 q 0,0.508234 0,1.524701 0.03175,1.048228 0.03175,1.5247 l 0.03175,0.06352 0.03175,0.03176 q 0.952943,0.03176 1.619997,0.730584 0.698821,0.66705 0.698821,1.619994 0,0.921172 -0.698821,1.619995 -0.698821,0.667051 -1.651758,0.667051 -1.111763,0 -2.223521,-0.667051 -1.52469,-0.889411 -2.096458,-2.223523 -0.412936,-1.016466 -0.412936,-2.763517 0,-0.349406 0,-1.111761 0.03175,-0.794117 0.03175,-1.175284 -1.5247,-0.508233 -1.5247,-2.096467 0,-1.619995 1.492938,-2.223522 0,-1.048228 0.635286,-1.715279 0.635292,-0.698822 1.68352,-0.698822 0.984705,0 1.619997,0.635289 0.667058,0.635289 0.698815,1.619995 h 3.684692 v -2.795274 h -5.939975 q -1.016466,0 -1.683525,-0.635299 -0.635292,-0.667051 -0.635292,-1.683518 0,-1.651756 1.365885,-2.096466 0.635292,-0.222351 2.763521,-0.222351 0,-1.048228 0.635287,-1.74705 0.635292,-0.698822 1.683515,-0.698822 1.048228,0 1.683531,0.698822 0.667048,0.698822 0.667048,1.74705 0.190588,0 0.635292,-0.03176 0.412937,0 0.635291,0 1.207049,0 2.001172,0.603528 0.825874,0.603528 0.825874,1.74705 z" />
    <path
       id="path1861"
       style="font-style:normal;font-variant:normal;font-weight:normal;font-stretch:normal;font-size:31.9031px;line-height:1.25;font-family:'SamuraiCabCo BB';-inkscape-font-specification:'SamuraiCabCo BB, Normal';font-variant-ligatures:normal;font-variant-caps:normal;font-variant-numeric:normal;font-variant-east-asian:normal;letter-spacing:2.52035px;fill:#be0026;fill-opacity:1;stroke:none;stroke-width:0.794117"
       d="m 72.86154,28.120065 q 0,1.207055 -0.444705,2.064694 -0.190587,0.381178 -1.207054,1.747051 -0.698821,0.952944 -1.397641,1.937639 -0.921176,1.08 -2.001161,1.08 -0.952938,0 -1.651759,-0.667061 -0.667064,-0.698822 -0.667064,-1.651756 0,-0.762345 0.444715,-1.365873 l 2.255283,-3.081162 v -2.064695 h -5.971747 q -0.984694,0 -1.68352,-0.66706 -0.667059,-0.698823 -0.667059,-1.651757 0,-1.588233 1.365885,-2.064695 0.698821,-0.254121 2.60469,-0.254121 0,-1.048228 0.635287,-1.747051 0.635302,-0.698822 1.68353,-0.698822 1.048229,0 1.683515,0.698822 0.667059,0.698823 0.667059,1.747051 h 0.889403 q 1.683531,0 2.350579,0.381177 0.984705,0.539995 1.04824,2.128229 0.06352,2.477633 0.06352,4.12939 z m -5.908202,10.831718 q 0,1.016467 -0.667064,1.715279 -0.667049,0.698822 -1.683515,0.698822 -1.302351,0 -2.636463,-0.984695 -1.302351,-0.984706 -1.74705,-2.223523 -0.285884,-0.762344 -0.285884,-2.191751 0,-1.079999 0.03175,-3.27175 0.06352,-2.191761 0.06352,-3.27175 0,-0.952944 0.667059,-1.619995 0.698816,-0.698822 1.651758,-0.698822 2.350574,0 2.350574,3.367045 0,0.381177 -0.03175,1.207055 -0.03175,0.794116 -0.03175,1.175284 l 0.03175,3.811746 0.03175,0.03176 q 0.9847,0.03176 1.619991,0.66706 0.635297,0.603528 0.635297,1.588224 z" />
    <path
       id="path1863"
       style="font-style:normal;font-variant:normal;font-weight:normal;font-stretch:normal;font-size:31.9031px;line-height:1.25;font-family:'SamuraiCabCo BB';-inkscape-font-specification:'SamuraiCabCo BB, Normal';font-variant-ligatures:normal;font-variant-caps:normal;font-variant-numeric:normal;font-variant-east-asian:normal;letter-spacing:2.52035px;fill:#be0026;fill-opacity:1;stroke:none;stroke-width:0.794117"
       d="m 90.632817,28.120065 q 0,1.207055 -0.444694,2.064694 -0.190592,0.381178 -1.207059,1.747051 -0.69881,0.952944 -1.397636,1.937639 -0.921171,1.08 -2.001172,1.08 -0.952932,0 -1.651758,-0.667061 -0.667048,-0.698822 -0.667048,-1.651756 0,-0.762345 0.444704,-1.365873 l 2.255283,-3.081162 V 26.118902 H 79.9917 q -0.984704,0 -1.683525,-0.66706 -0.667054,-0.698823 -0.667054,-1.651757 0,-1.588233 1.365875,-2.064695 0.69882,-0.254121 2.60469,-0.254121 0,-1.048228 0.635297,-1.747051 0.635292,-0.698822 1.683515,-0.698822 1.048234,0 1.683531,0.698822 0.667053,0.698823 0.667053,1.747051 h 0.889409 q 1.683515,0 2.350579,0.381177 0.984694,0.539995 1.048228,2.128229 0.06352,2.477633 0.06352,4.12939 z M 84.72462,38.951783 q 0,1.016467 -0.667064,1.715279 -0.667048,0.698822 -1.683515,0.698822 -1.30235,0 -2.636463,-0.984695 -1.30235,-0.984706 -1.747049,-2.223523 -0.285884,-0.762344 -0.285884,-2.191751 0,-1.079999 0.03175,-3.27175 0.06352,-2.191761 0.06352,-3.27175 0,-0.952944 0.667059,-1.619995 0.698821,-0.698822 1.651758,-0.698822 2.350579,0 2.350579,3.367045 0,0.381177 -0.03175,1.207055 -0.03175,0.794116 -0.03175,1.175284 l 0.03175,3.811746 0.03175,0.03176 q 0.9847,0.03176 1.619991,0.66706 0.635292,0.603528 0.635292,1.588224 z" />
    <text
       id="text2099"
       y="32.824436"
       x="103.65795"
       style="font-style:normal;font-variant:normal;font-weight:bold;font-stretch:normal;font-size:13.5587px;line-height:1.25;font-family:'Century Gothic';-inkscape-font-specification:'Century Gothic, Bold';font-variant-ligatures:normal;font-variant-caps:normal;font-variant-numeric:normal;font-variant-east-asian:normal;letter-spacing:1.68446px;fill:#000026;fill-opacity:1;stroke:none;stroke-width:0.338969"
       xml:space="preserve"><tspan
         id="tspan2097"
         style="font-style:normal;font-variant:normal;font-weight:bold;font-stretch:normal;font-size:13.5587px;font-family:'Century Gothic';-inkscape-font-specification:'Century Gothic, Bold';font-variant-ligatures:normal;font-variant-caps:normal;font-variant-numeric:normal;font-variant-east-asian:normal;letter-spacing:1.68446px;fill:#000026;fill-opacity:1;stroke-width:0.338969"
         y="32.824436"
         x="103.65795"
         sodipodi:role="line"><tspan
           dy="-0.025499852"
           style="letter-spacing:1.68446px;fill:#000026;fill-opacity:1;stroke-width:0.338969"
           id="tspan2093">tr<tspan
   id="tspan2293"
   style="letter-spacing:1.23814px;stroke-width:0.338969">a</tspan><tspan
   style="letter-spacing:0.795572px;fill:#000026;fill-opacity:1;stroke-width:0.338969"
   id="tspan2089"><tspan
   id="tspan2295"
   style="letter-spacing:1.23814px;stroke-width:0.338969">v</tspan>e</tspan>l</tspan><tspan
           dy="-1.1262437"
           id="tspan2095"
           style="font-style:normal;font-variant:normal;font-weight:bold;font-stretch:normal;font-size:13.5587px;font-family:'Century Gothic';-inkscape-font-specification:'Century Gothic, Bold';font-variant-ligatures:normal;font-variant-caps:normal;font-variant-numeric:normal;font-variant-east-asian:normal;letter-spacing:1.68446px;fill:#000026;fill-opacity:1;stroke-width:0.338969"
           dx="0"> </tspan></tspan></text>
    <text
       xml:space="preserve"
       style="font-style:normal;font-variant:normal;font-weight:bold;font-stretch:normal;font-size:13.5587px;line-height:1.25;font-family:'Century Gothic';-inkscape-font-specification:'Century Gothic, Bold';font-variant-ligatures:normal;font-variant-caps:normal;font-variant-numeric:normal;font-variant-east-asian:normal;letter-spacing:1.07114px;fill:#000026;fill-opacity:1;stroke:none;stroke-width:0.338969"
       x="96.455475"
       y="21.419075"
       id="text2107"><tspan
         sodipodi:role="line"
         id="tspan2101"
         x="96.455475"
         y="21.419075"
         style="font-style:normal;font-variant:normal;font-weight:bold;font-stretch:normal;font-size:13.5587px;font-family:'Century Gothic';-inkscape-font-specification:'Century Gothic, Bold';font-variant-ligatures:normal;font-variant-caps:normal;font-variant-numeric:normal;font-variant-east-asian:normal;letter-spacing:1.07114px;fill:#000026;fill-opacity:1;stroke-width:0.338969" /><tspan
         sodipodi:role="line"
         x="96.455475"
         y="38.367451"
         style="font-style:normal;font-variant:normal;font-weight:bold;font-stretch:normal;font-size:13.5587px;font-family:'Century Gothic';-inkscape-font-specification:'Century Gothic, Bold';font-variant-ligatures:normal;font-variant-caps:normal;font-variant-numeric:normal;font-variant-east-asian:normal;letter-spacing:1.07114px;fill:#000026;fill-opacity:1;stroke-width:0.338969"
         id="tspan2105"><tspan
           dx="0 0 0 0 0 0 0 0"
           style="font-style:normal;font-variant:normal;font-weight:bold;font-stretch:normal;font-size:13.5587px;font-family:'Century Gothic';-inkscape-font-specification:'Century Gothic, Bold';font-variant-ligatures:normal;font-variant-caps:normal;font-variant-numeric:normal;font-variant-east-asian:normal;letter-spacing:1.07114px;fill:#000026;fill-opacity:1;stroke-width:0.338969"
           id="tspan2103"
           dy="1.1517434 0 0 0 0 0 0 -1.1262437">planner </tspan></tspan></text>
  </g>
</svg>
